<svg xmlns="http://www.w3.org/2000/svg" viewBox="0 0 223.8 66"><path fill-rule="evenodd" clip-rule="evenodd" fill="#076cb5" d="M0 0h223.8v66H0z"/><path d="M52 45.5c-.7 0-1.3 0-1.9-.1-.6-.1-1.2-.2-1.7-.3-.5-.1-1-.3-1.4-.6-.4-.2-.8-.5-1.2-.8-.3-.3-.6-.6-.9-1-.3-.4-.5-.7-.6-1.1-.2-.4-.3-.8-.3-1.2-.1-.4-.1-.9-.1-1.3V27c0-.9.2-1.8.5-2.6l.6-1.2c.3-.4.6-.7.9-1 .3-.3.7-.5 1.2-.8.4-.2.9-.4 1.4-.6.5-.2 1.1-.3 1.7-.3.6-.1 1.2-.1 1.9-.1h19.6v5.1H52c-.8 0-1.4.1-1.7.4-.3.2-.4.5-.4 1V39c0 .4.1.8.4 1 .3.3.9.4 1.7.4h19.6v5.1H52zm117.4-5.6h-11.8l3.3-5.1h5.3l-4.8-7.4-11.8 18.1h-6.8l16.6-25h4l16.5 25H173zM78.5 20.5h25.7v5.1H84.6v4.2h14.3v5.1H84.6v5.5h19.6v5.1H78.5zm49.6 14.6h-11v10.4h-6V30h20.6c.8 0 1.4-.1 1.7-.4.3-.2.4-.5.4-1v-1.7c0-.4-.1-.8-.4-1-.3-.3-.9-.4-1.7-.4h-20.6v-5.1h20.6c.7 0 1.3 0 1.9.1.6.1 1.2.2 1.7.3.5.2 1 .3 1.4.6.4.2.8.5 1.2.8.3.3.6.6.9 1 .3.4.5.7.6 1.2.2.4.3.8.3 1.2.1.4.1.9.1 1.3v1.7c0 .8-.1 1.6-.4 2.3-.3.7-.6 1.4-1.2 2-.5.6-1.2 1.1-2.1 1.4-.5.2-1.1.4-1.7.5l5.6 10.7h-6.6l-5.3-10.4z" fill-rule="evenodd" clip-rule="evenodd" fill="#fff"/></svg>