<svg xmlns="http://www.w3.org/2000/svg" viewBox="0 0 120.8 40"><path d="M109.2 27v7.2c2.1-1.2 4-2.3 6.2-3.6-2.2-1.3-4-2.4-6.2-3.6zm2.3 12.6c-5.2 0-9.2-4-9.1-9.2 0-5 4.1-9.1 9.1-9.1s9.3 4.2 9.3 9.2c0 5-4.1 9.1-9.3 9.1zM87.6 23.7v5.2h11.2v2.7H87.6v5.6h12v2.5H83.9V21.2h15.6v2.5zM62 21.2c4-.3 4-.3 5.4 3.1 1.5 3.8 3.1 7.5 4.8 11.8.5-1.2.8-2 1.1-2.8 1.3-3.4 2.8-6.9 4-10.3.5-1.4 1.2-2.1 2.7-1.8.6.1 1.2 0 2.1 0-1.7 4-3.4 7.9-5 11.7-.8 2-1.7 4-2.6 6-.5 1.2-4.1 1.7-4.6.6-2.6-6.2-5.2-12.2-7.9-18.3zm-7.7 16v2.5H39.8V21.2h3.5v16zm2.6-16h3.4v18.6h-3.4z" fill-rule="evenodd" clip-rule="evenodd" fill="#e63235"/><path d="M109.2 27c2.2 1.2 4 2.3 6.2 3.6-2.2 1.3-4.1 2.4-6.2 3.6V27z" fill-rule="evenodd" clip-rule="evenodd" fill="#fff"/><path d="M61.1 10.6h-8v7.6h-4.4V6.9h15c.6 0 1-.1 1.2-.3.2-.1.3-.4.3-.7V4.7c0-.3-.1-.6-.3-.7-.3-.2-.7-.3-1.2-.3h-15V0h15c.5 0 1 0 1.4.1.4.1.8.1 1.2.2.4.1.7.2 1 .4.3.2.6.3.8.6.3.2.5.4.7.7.2.3.3.5.4.8.1.3.2.6.2.9.1.3.1.6.1 1v1.2c0 .6-.1 1.2-.3 1.7-.2.5-.5 1-.8 1.4-.4.4-.9.8-1.5 1-.4.2-.8.3-1.2.4l4.1 7.7H65l-3.9-7.5zM25.1 0h18.6v3.7H29.5v3h10.4v3.7H29.5v4h14.2v3.7H25.1V0zM91 14h-8.6l2.4-3.7h3.8L85.2 5l-8.5 13.1h-5L83.7 0h3l12 18.1h-5L91 14zM5.9 18.1c-.5 0-1 0-1.4-.1-.4-.1-.8-.1-1.2-.2-.4-.1-.7-.2-1-.4l-.9-.6c-.2-.2-.5-.4-.6-.7-.2-.3-.3-.5-.5-.8-.1-.3-.2-.6-.2-.9-.1-.3-.1-.6-.1-1V4.7c0-.7.1-1.3.3-1.9.1-.3.3-.6.5-.8.2-.3.4-.5.6-.7l.9-.6c.3-.2.7-.3 1-.4.4-.1.8-.2 1.2-.2.4-.1.9-.1 1.4-.1h14.2v3.7H5.9c-.6 0-1 .1-1.2.3-.2.1-.3.3-.3.7v8.8c0 .3.1.6.3.7.2.2.7.3 1.2.3h14.2v3.7H5.9z" fill-rule="evenodd" clip-rule="evenodd" fill="#076cb5"/></svg>