<svg version="1.1" id="Layer_1" xmlns="http://www.w3.org/2000/svg" x="0" y="0" viewBox="0 0 223.8 66" xml:space="preserve"><style>.st1{fill-rule:evenodd;clip-rule:evenodd;fill:#fff}</style><path fill-rule="evenodd" clip-rule="evenodd" fill="#193659" d="M0 0h223.8v66H0z"/><path class="st1" d="M166.4 35.1l2.4-5.6h7.3l2.3 5.6h1.8l-7.5-17.2-7.9 17.2h1.6zm6.1-14.1l3.1 7.2h-6.2l3.1-7.2zm-62.1 13.2c.9.5 1.9.8 3.1.8 1.6 0 3-.4 3.9-1.3 1-.9 1.4-2 1.4-3.5 0-1.1-.3-2-.8-2.7-.5-.7-1.6-1.4-3.1-2.2-.2-.1-.5-.2-.9-.4-2.1-1-3.2-2.1-3.2-3.2 0-.8.3-1.4.8-1.9s1.3-.7 2.1-.7c.7 0 1.2.1 1.7.4.5.2.9.6 1.1 1.1l1.3-.7c-.4-.7-1-1.2-1.7-1.6-.7-.3-1.5-.5-2.4-.5-1.4 0-2.5.4-3.4 1.1-.9.7-1.3 1.7-1.3 2.8 0 .9.3 1.7.9 2.4.6.7 1.8 1.4 3.7 2.3 1.4.7 2.4 1.3 2.8 1.8.4.5.7 1.2.7 2 0 1.1-.3 1.9-1 2.5-.7.6-1.6.9-2.7.9-.9 0-1.7-.2-2.4-.7-.7-.4-1.1-1.1-1.4-1.9l-1.4.7c.7 1.2 1.4 2 2.2 2.5zm29.9-16.3h-1.8l-5.4 13.5-5.2-13.5h-1.8l7 17.2zm16.9 17.2v-1.4H150v-7.4h7.2v-1.4H150v-5.6h7.2v-1.4h-8.9v17.2zM97.9 17.9h1.6v17.2h-1.6zM56.3 41.1c.6.4 1.4.7 2.2.9.3.1.2.4 0 .4-1 0-2.9-.5-4.4-2.2-.1-.1-.3 0-.3.2.1.8.5 1.9 1.6 2.8.5.4.9.7 1.4 1 .9.4 1.2.6 2.2.8.2 0 .6.1.8.1.4 0 .7.1 1.1 0 .7-.1 1-.1 1.5-.3.2 0 .3-.1.6-.2 0-.6.1-1.3.2-2.1.1-.5.4-1.2.5-1.7-.1-1.1-.2-1.1-.7-2-.4-.7-.8-1.1-1.5-2-.6-.7-1.1-1.4-1.6-2.2-.5-.8-1-1.6-1.4-2.7-.4-1-1.4-3.6-.6-6.7.3-1.1.6-2 1.2-3.1.4-.7 1.4-2.2 3.5-3.5.6-.4.6-.7-.1-.5-2.1.8-3.6 2.3-4.6 3.6-1.5 2.2-1.8 4.3-1.8 5.6 0 .7.1 1.7.2 2.5.2 1 .5 2.2 1 3.3.2.5-.1.6-.3.4-1-1.3-2.2-3.1-1.7-8.5 0-.3-.3-.5-.5 0-1.5 4.5-.9 7.9 2.2 11.1.4.4.2.7-.2.5-1.6-1.2-3.3-2.9-3.5-6.6 0-.2-.3-.3-.4 0-.1.5-.2 1.1-.2 1.7 0 3.5 2.1 6.4 4.7 7.7.3.2.2.5 0 .5-1.7-.6-3.3-1.7-4.5-4.4-.1-.2-.3-.2-.3.1 0 .4 0 .9.2 1.5.4 1.2 1.7 2.9 3.5 4z"/><path class="st1" d="M92.3 47.4c-6.8-.3-14.6-.4-20.5-.4.1-.4.2-.8.2-1.2 0-.2 0-.4-.1-.7 0-.3.2-.4.5-.4.3.1.4.1.6.2.5.1.8.2 1.5.3h1.1c.2 0 .6-.1.8-.1 1-.2 1.3-.4 2.2-.8.5-.2.9-.5 1.4-1 1.1-.9 1.5-2 1.6-2.8 0-.3-.2-.4-.3-.2-1.5 1.7-3.3 2.2-4.4 2.2-.3 0-.3-.4 0-.4.8-.2 1.6-.5 2.2-.9 1.8-1.1 3.1-2.8 3.5-3.9.2-.6.2-1.1.2-1.5 0-.3-.2-.3-.3-.1-1.2 2.7-2.7 3.8-4.5 4.4-.3.1-.3-.3 0-.5 2.6-1.4 4.7-4.3 4.7-7.7 0-.6 0-1.1-.2-1.7-.1-.3-.4-.2-.4 0-.2 3.7-1.8 5.5-3.5 6.6-.4.3-.6-.1-.2-.5 3.1-3.2 3.7-6.6 2.2-11.1-.2-.5-.5-.4-.5 0 .5 5.4-.7 7.2-1.7 8.5-.1.2-.5.1-.3-.4.5-1.2.8-2.3 1-3.3.1-.7.2-1.7.2-2.5-.1-1.4-.3-3.4-1.8-5.6-1-1.4-2.5-2.9-4.6-3.6-.7-.3-.7.1-.1.5 2.1 1.3 3.1 2.9 3.5 3.5.6 1.1.9 2 1.2 3.1.7 3.1-.3 5.6-.6 6.7-.4 1.1-.9 2-1.4 2.7-.5.8-1 1.5-1.6 2.2-1.1 1.3-2.4 2.9-3.5 3.6-.4.2-.8.5-1.3.5-.7 0-1.3-.5-1.3-1.2s.2-1.3.7-2c0-.1.1-.1.1-.2s.1-.1.1-.1c0-.1.1-.1.1-.1 0 .1.2-.2 0 0 1.1-1.6.9-1.5 1.2-2.1.4-1 .2-3.5-2.3-3.7h-.6c-.1 0-.1 0-.2-.1 0 0 0-.1-.1-.2v-.6c0-.2 0-.4.1-.5.1-.2.1-.5.3-.7.1-.1 0-.1-.1-.1-.2.1-.3.3-.4.4-.1.1-.2.2-.2.3-.5.1-.5.4-.5.6v.1l-.1-.1c-.1-.2-.2-.3-.2-.5-.1-.3-.3-.6-.4-.9-.1-.2-.1-.4-.2-.6-.1-.3-.1-.5-.1-.8v-.4c0-.1 0-.2-.2 0-.1.1-.1.2-.2.3-.1.1-.1.3-.2.4-.1.2-.1.5-.1.8v.4c0 .1 0 .2.1.3.1.3.3.7.5 1v.1h-.1l-.1-.1-.3-.3c-.1-.1-.2-.2-.3-.4-.1-.1-.1-.2-.1-.3 0-.1-.2-.1-.2 0v.3c0 .3.1.5.3.9l.3.3c.1.1.3.2.5.3.1 0 .2.1.3.1 0 0 .2.1.1.2-.1 0-.2.1-.3.1-.4.3-.7.5-1 .9-.2.3-.5.7-.4.9.1.2 0 .5-.4 1.3v.4c0 .2.2.3.3.1.6-.9 2-.9 2.7-1.4.8-.5.6-.8 1.2-1.1 0 0 .8-.4 1.2.4.3.6.1 1.2-.1 1.5-.3.7-.5 1.2-1.7 2.7-1.9 2.4-2.4 3.7-2.5 4-.2.5-.3 1-.4 1.6-.1.5-.1 1-.1 1.6 0 .7.1 1.4.3 2-7.1.1-13.4.2-17.5.4-.7 0-1.3 0-1.9.1-1.3 0-1.3.2 0 .2.6 0 1.2 0 1.9.1 8.8.3 27.8.7 45.8-.1.8 0 .8-.2-.1-.2zm23.3-3.5l.3-.4h1v4.6h-.6v-4.2zm5.3 4l1.1-1.5h-.4c-.4 0-.8-.1-1.1-.4-.3-.3-.4-.7-.4-1.1 0-.4.2-.8.5-1.1.3-.3.7-.5 1.1-.5.4 0 .8.2 1.1.5.3.3.5.7.5 1.1v.3c0 .1-.1.2-.1.3 0 .1-.1.1-.1.2s-.1.1-.1.2l-1.6 2.2-.5-.2zm0-2.2c.2.2.5.3.8.3.3 0 .6-.1.8-.3.2-.2.3-.5.3-.8s-.1-.6-.3-.8c-.2-.2-.5-.3-.8-.3-.3 0-.6.1-.8.3-.2.2-.3.5-.3.8s.1.6.3.8zm6.7-2.1l-1.1 1.5h.4c.4 0 .8.1 1.1.4.3.3.4.7.4 1.1 0 .4-.2.8-.5 1.1-.3.3-.7.5-1.1.5-.4 0-.8-.2-1.1-.5-.3-.3-.5-.7-.5-1.1v-.3c0-.1 0-.2.1-.3 0-.1.1-.2.1-.3 0-.1.1-.2.2-.3l1.6-2.2.4.4zm.1 2.2c-.2-.2-.5-.3-.8-.3-.3 0-.6.1-.8.3-.2.2-.3.5-.3.8 0 .3.1.6.3.8.2.2.5.3.8.3.3 0 .6-.1.8-.3.2-.2.3-.5.3-.8 0-.3-.1-.5-.3-.8zm5.8 1.8v.5h-3l1.7-2 .1-.1c0-.1.1-.1.1-.2.1-.1.3-.3.4-.5.1-.2.2-.4.2-.5 0-.3-.1-.5-.3-.6-.2-.2-.4-.3-.7-.3-.2 0-.3 0-.4.1l-.3.3c0 .1-.1.1-.1.2v.3h-.5c0-.2 0-.4.1-.5 0-.1.1-.3.2-.4.1-.1.3-.3.5-.3.2-.1.4-.1.6-.1.4 0 .8.1 1 .4.3.3.4.6.4 1 0 .3-.1.6-.2.8-.2.3-.3.5-.5.7l-.1.1-.1.1-.9 1.1h1.8zm5.6-4.1h.5v4.6h-.5zm4.1 4.6h-.5v-4.2h-1.1v-.4h2.8v.4h-1.2zm3.7-1.3l-.6 1.3h-.6l2.1-4.9 2.1 4.9h-.6l-.6-1.3h-1.8zm1-2.4l-.8 1.9h1.6l-.8-1.9zm4.5 3.2h1.3v.5h-1.8v-4.6h.5zm3.2-4.1h.5v4.6h-.5zm3.6 3.3l-.6 1.3h-.6l2.1-4.9 2.1 4.9h-.6l-.6-1.3h-1.8zm1-2.4l-.8 1.9h1.6l-.8-1.9z"/></svg>