<svg xmlns="http://www.w3.org/2000/svg" viewBox="0 0 223.8 66"><path fill-rule="evenodd" clip-rule="evenodd" fill="#9b8e68" d="M0 0h223.8v66H0z"/><path d="M81.8 17.3c-.6 2.1-1 2.6-1.6 2.6-1.1 0-2.2-2.6-6-2.6-4.7 0-8.5 3.5-8.5 7.4 0 3 2.3 4.4 5 5.9 3.1 1.7 4.7 2.9 4.7 4.8 0 2.7-2.5 4.4-5.8 4.4-5.2 0-6.5-4.9-5.6-9.1h-.3l-2.6 9.5h.3c.6-2 1-2.8 1.7-2.8 1.2 0 2.4 2.8 6.5 2.8 4.9 0 9.3-3.6 9.3-8.1 0-3.1-2.3-4.4-5.4-6.1-3-1.6-4.3-2.6-4.3-4.4 0-2.5 2.3-3.8 4.9-3.8 4.9 0 6.1 4.9 5.3 8.5h.3l2.4-8.8h-.3zM141 37.5c-.8 1.6-1.6 2.3-2.6 2.3s-1.6-.8-1.6-2.1c0-2.5 1.7-8.8 3.1-11.4.8-1.6 1.6-2.3 2.6-2.3s1.6.8 1.6 2.1c0 2.5-1.8 8.8-3.1 11.4zm-21.2-8.9c-2 6.3-4.5 10.9-6.3 10.9-.7 0-1-.6-1-1.8 0-2.4 1.9-8.6 3.7-11.4.7-1.1 1.4-2 2.5-2 1.4 0 1.6 1.8 1.1 4.3zm-35 3.7c.6-2.2 1.5-4.6 2.3-6 .9-1.6 1.7-2.3 2.5-2.3.9 0 1.1.7 1.1 1.5 0 3.3-2.5 6.5-5.9 6.8zm75.2-8.6c-1.9 0-3.5 2.1-5.1 5.6h-.1c.4-1.2.7-2.2.7-2.9 0-1.5-1-2.8-3-2.8-2.3 0-3.8 1.8-5 4.4-.6-2.6-2.5-4.4-5.2-4.4-4.8 0-9 5.4-9 10.2v.3c-1.1 3-2.7 5.3-4 5.3-.6 0-.9-.4-.9-1 0-.5.1-1.2.3-1.9l3.7-12.2 2.9.1.1-.4-3 .1 1.7-5.8-.8.3c-1.1 2.1-2.8 4.1-4.7 5.4l-2.1.1-.1.3 2 .1-1.5 5.3c-.5 1.7-1 3.3-1.4 4.6-1.1 3-2.6 5.2-3.8 5.2-.4 0-.6-.3-.6-.8 0-.4.1-1.1.3-1.8l3.7-13h-4.2l-.6 2.6c.1-1.6-.5-2.8-2.3-2.8-4.6 0-8.7 5.6-8.7 10.6 0 .5 0 1 .1 1.4-1 2.2-2.3 3.8-3.3 3.8-.4 0-.6-.3-.6-.8 0-2.3 3.3-8.4 3.3-11 0-1.9-1.5-4.1-3.3-4.1-1.7 0-3.6 2.2-5.3 5.6h-.1c.4-1.1.7-2 .7-2.8 0-1.5-1-2.9-3.1-2.9-1.8 0-3.1 1.1-4.2 2.7-.3-1.8-2-2.7-3.8-2.7-5.3 0-9.2 5.5-9.3 9.9-.2 4 1.7 6.6 4.8 6.6 2.8 0 5-1.9 7.1-6.1l-.3-.2c-1.7 3.6-3.9 5.8-5.9 5.8-1.5 0-2.3-1.1-2.1-2.9.1-.9.4-2.4.9-4.1 5.1-.2 8.8-2.3 8.8-5.6v-.2c.9-1.6 1.9-2.5 2.7-2.5.4 0 .6.3.6.8 0 1.9-2.4 8.1-4.3 15h4.4l.9-3.6c2-6.6 5.1-12.3 7.2-12.3.5 0 .8.4.8 1 0 2-3.8 8.2-3.8 11.8 0 1.7 1 3.1 3.3 3.1 1.9 0 3.2-1.7 4.2-3.9.5 2.4 1.7 3.9 3.4 3.9s3.4-2.2 5-5.6h.1c-.4 1.1-.7 2.1-.7 2.7 0 1.7 1.5 3 3 3 2.1 0 3.5-1.8 4.6-4-.1.3-.1.6-.1.8 0 1.6 1.2 3.2 3.1 3.2 2.7 0 4.1-2.3 5.3-5.2.4 2.9 2.3 5.2 5.1 5.2 5.1 0 9.2-5.3 9.2-10.3 0-.4 0-.9-.1-1.3 1.1-2.6 2.4-4.3 3.5-4.3.4 0 .6.3.6.8 0 1.9-2.4 8.1-4.3 15h4.4l.9-3.6c2.2-7.2 4.6-12.3 6.7-12.3.5 0 .8.3.8.8 0 1-1 2.8-2.3 3.8.1 1 .9 1.6 1.8 1.6 1.8 0 3-2 3-3.8.1-1.8-1.1-2.9-2.7-2.9zm-54.8 20.8h.4v3.7h2.3v.5h-2.7zM111 47c0-.6-.4-1-1-1-.5 0-.9.4-1 1h2zm-2.4.1c0-.9.6-1.6 1.4-1.6.9 0 1.4.7 1.4 1.6v.1H109c.1.7.5 1 1.1 1 .4 0 .7-.2 1-.4l.3.3c-.3.3-.7.6-1.2.6-.9 0-1.6-.6-1.6-1.6zm4 .8V46h-.4v-.4h.4v-.9h.4v.9h1v.4h-1v1.8c0 .4.2.5.5.5.2 0 .3 0 .4-.1v.4c-.2.1-.3.1-.5.1-.5 0-.8-.2-.8-.8zm4.3 0V46h-.4v-.4h.4v-.9h.4v.9h1v.4h-1v1.8c0 .4.2.5.5.5.2 0 .3 0 .4-.1v.4c-.2.1-.3.1-.5.1-.4 0-.8-.2-.8-.8zm2.4-3.5h.4v1.8c.2-.3.5-.6 1-.6.7 0 1.2.5 1.2 1.2v1.9h-.4v-1.8c0-.6-.3-.9-.8-.9s-.9.4-.9 1v1.7h-.4v-4.3zm5.9 2.6c0-.6-.4-1-1-1-.5 0-.9.4-1 1h2zm-2.4.1c0-.9.6-1.6 1.4-1.6.9 0 1.4.7 1.4 1.6v.1h-2.4c.1.7.5 1 1.1 1 .4 0 .7-.2 1-.4l.3.3c-.3.3-.7.6-1.2.6-.9 0-1.6-.6-1.6-1.6zm5.4-1.5h.5l.8 2.5.8-2.5h.4l.8 2.5.8-2.5h.5l-1.1 3.1h-.4l-.8-2.4-.8 2.4h-.4zm7.8 1.6c0-.7-.5-1.2-1.1-1.2-.7 0-1.1.5-1.1 1.2s.5 1.2 1.1 1.2c.7-.1 1.1-.6 1.1-1.2zm-2.7 0c0-.9.7-1.6 1.6-1.6.9 0 1.6.7 1.6 1.6 0 .9-.7 1.6-1.6 1.6-.9-.1-1.6-.8-1.6-1.6zm4.1-1.6h.4v.8c.2-.5.7-.9 1.2-.8v.4c-.7 0-1.2.5-1.2 1.4v1.2h-.4v-3zm2.6-1.2h.4v4.3h-.4zm4 2.7c0-.7-.5-1.2-1.1-1.2-.6 0-1.1.4-1.1 1.2 0 .7.5 1.2 1.1 1.2.6 0 1.1-.5 1.1-1.2zm-2.6 0c0-1 .7-1.6 1.4-1.6.6 0 .9.3 1.2.6v-1.8h.4v4.3h-.4V48c-.2.4-.6.7-1.2.7s-1.4-.6-1.4-1.6zm6.1-2.7h.5v2.9l1.6-1.7h.6l-1.3 1.3 1.3 1.8h-.5l-1.1-1.5-.6.7v.8h-.5zm3.5 1.2h.4v.5c.2-.3.5-.6 1-.6.7 0 1.2.5 1.2 1.2v1.9h-.4v-1.8c0-.6-.3-.9-.8-.9s-.9.4-.9 1v1.7h-.5v-3zm6.2 1.6c0-.7-.5-1.2-1.1-1.2-.7 0-1.1.5-1.1 1.2s.5 1.2 1.1 1.2c.7-.1 1.1-.6 1.1-1.2zm-2.7 0c0-.9.7-1.6 1.6-1.6.9 0 1.6.7 1.6 1.6 0 .9-.7 1.6-1.6 1.6-.9-.1-1.6-.8-1.6-1.6zm3.7-1.6h.5l.8 2.5.8-2.5h.4l.8 2.5.8-2.5h.5l-1.1 3.1h-.4l-.8-2.4-.8 2.4h-.4z" fill-rule="evenodd" clip-rule="evenodd" fill="#fff"/></svg>